%FSLAX34Y34*%
%MOMM*%
%LNSOLDERMASK_TOP*%
G71*
G01*
%ADD10R, 0.799X1.749*%
%ADD11R, 1.399X2.001*%
%ADD12R, 1.470X0.759*%
%ADD13R, 0.759X1.470*%
%ADD14R, 2.100X0.800*%
%ADD15R, 1.800X1.500*%
%ADD16C, 2.199*%
%ADD17R, 1.400X1.000*%
%ADD18R, 1.600X1.500*%
%ADD19C, 1.500*%
%ADD20R, 2.200X1.800*%
%LPD*%
X59457Y43854D02*
G54D10*
D03*
X69465Y43853D02*
G54D10*
D03*
X46452Y12840D02*
G54D11*
D03*
X112442Y12840D02*
G54D11*
D03*
X79448Y43853D02*
G54D10*
D03*
X89455Y43853D02*
G54D10*
D03*
X99463Y43853D02*
G54D10*
D03*
X131812Y92904D02*
G54D12*
D03*
X131812Y100905D02*
G54D12*
D03*
X131812Y108906D02*
G54D12*
D03*
X131812Y116907D02*
G54D12*
D03*
X131812Y124908D02*
G54D12*
D03*
X131812Y132909D02*
G54D12*
D03*
X131812Y140910D02*
G54D12*
D03*
X131812Y148911D02*
G54D12*
D03*
X45960Y148911D02*
G54D12*
D03*
X45960Y140910D02*
G54D12*
D03*
X45960Y132909D02*
G54D12*
D03*
X45960Y124908D02*
G54D12*
D03*
X45960Y116907D02*
G54D12*
D03*
X45960Y108906D02*
G54D12*
D03*
X45960Y100905D02*
G54D12*
D03*
X45960Y92904D02*
G54D12*
D03*
X60895Y77969D02*
G54D13*
D03*
X68896Y77969D02*
G54D13*
D03*
X77000Y77961D02*
G54D13*
D03*
X84898Y77969D02*
G54D13*
D03*
X92899Y77969D02*
G54D13*
D03*
X100900Y77969D02*
G54D13*
D03*
X108901Y77969D02*
G54D13*
D03*
X116902Y77969D02*
G54D13*
D03*
X116902Y163821D02*
G54D13*
D03*
X108901Y163821D02*
G54D13*
D03*
X100900Y163821D02*
G54D13*
D03*
X92899Y163821D02*
G54D13*
D03*
X84898Y163821D02*
G54D13*
D03*
X76897Y163821D02*
G54D13*
D03*
X68896Y163821D02*
G54D13*
D03*
X60895Y163821D02*
G54D13*
D03*
X163438Y136537D02*
G54D14*
D03*
X163438Y124631D02*
G54D14*
D03*
X163835Y112725D02*
G54D14*
D03*
X19718Y99130D02*
G54D15*
D03*
X19718Y77748D02*
G54D15*
D03*
X239226Y19777D02*
G54D16*
D03*
X239226Y44780D02*
G54D16*
D03*
X18564Y19380D02*
G54D16*
D03*
X18564Y44780D02*
G54D16*
D03*
X146073Y59074D02*
G54D17*
D03*
X146073Y40074D02*
G54D17*
D03*
X123086Y49574D02*
G54D17*
D03*
X202413Y39464D02*
G54D18*
D03*
X202413Y58464D02*
G54D18*
D03*
X173044Y58464D02*
G54D18*
D03*
X173044Y39464D02*
G54D18*
D03*
X18167Y161064D02*
G54D16*
D03*
X18167Y135664D02*
G54D16*
D03*
X209063Y108656D02*
G54D19*
D03*
X208247Y143323D02*
G54D18*
D03*
X208247Y162323D02*
G54D18*
D03*
X235149Y76814D02*
G54D20*
D03*
X235149Y108783D02*
G54D20*
D03*
M02*
