; Drill file
; Format: 3.3 (000.000)
M48
METRIC
T01C0.4
T02C0.8
%
G05
G90
T01
X006900Y002980
X004310Y006670
X001980Y007820
X006430Y011050
X005950Y012380
X006390Y014380
X010630Y012460
X010630Y009560
X016390Y012460
X014330Y016370
X017340Y006310
X015280Y002040
X012980Y002000
X021660Y001190
X023830Y010880
T02
X001860Y001940
X001860Y004480
X001820Y013570
X001820Y016110
X023920Y004480
X023920Y001980
M30
