%FSLAX34Y34*%
%MOMM*%
%LNSILK_BOTTOM*%
G71*
G01*
%ADD10C, 0.150*%
%ADD11C, 0.201*%
%ADD12C, 0.089*%
%ADD13C, 0.200*%
%ADD14C, 0.391*%
%ADD15C, 0.127*%
%ADD16C, 0.100*%
%ADD17C, 0.111*%
%LPD*%
G54D10*
X94741Y171847D02*
X94741Y117475D01*
X74103Y117475D01*
X73706Y171847D01*
X94741Y171847D01*
G36*
X76068Y136124D02*
X92043Y136124D01*
X84452Y154330D01*
X76068Y136124D01*
G37*
G54D10*
X76068Y136124D02*
X92043Y136124D01*
X84452Y154330D01*
X76068Y136124D01*
G54D10*
X76068Y154727D02*
X92440Y154727D01*
G54D11*
X97630Y57959D02*
X106216Y57959D01*
G54D11*
X106216Y29511D02*
X97630Y29511D01*
G54D11*
X93820Y41043D02*
X93820Y46402D01*
G54D12*
X101526Y82120D02*
X104192Y84787D01*
X97081Y84787D01*
G54D12*
X102859Y91010D02*
X98414Y91010D01*
X97526Y90477D01*
X97081Y89410D01*
X97081Y88344D01*
X97526Y87277D01*
X98414Y86744D01*
X102859Y86744D01*
X103748Y87277D01*
X104192Y88344D01*
X104192Y89410D01*
X103748Y90477D01*
X102859Y91010D01*
G54D12*
X102859Y97233D02*
X98414Y97233D01*
X97526Y96700D01*
X97081Y95633D01*
X97081Y94566D01*
X97526Y93500D01*
X98414Y92966D01*
X102859Y92966D01*
X103748Y93500D01*
X104192Y94566D01*
X104192Y95633D01*
X103748Y96700D01*
X102859Y97233D01*
G54D12*
X100637Y101323D02*
X99748Y102923D01*
X98859Y103456D01*
X97081Y103456D01*
G54D12*
X97081Y99190D02*
X104192Y99190D01*
X104192Y101856D01*
X103748Y102923D01*
X102859Y103456D01*
X101970Y103456D01*
X101081Y102923D01*
X100637Y101856D01*
X100637Y99190D01*
G54D10*
X74144Y74414D02*
X94144Y74414D01*
X94144Y112414D01*
X74144Y112414D01*
X74144Y74414D01*
G54D13*
X225206Y5359D02*
X253222Y5359D01*
X253222Y58775D01*
X225206Y58775D01*
X225206Y5359D01*
G54D10*
X52734Y76628D02*
X40431Y76628D01*
X40431Y111187D01*
X53131Y111187D01*
X53131Y76628D01*
G36*
X53231Y91678D02*
X53131Y91678D01*
X46831Y97978D01*
X46731Y97978D01*
X40431Y91678D01*
X53231Y91678D01*
G37*
G54D10*
X53231Y91678D02*
X53131Y91678D01*
X46831Y97978D01*
X46731Y97978D01*
X40431Y91678D01*
X53231Y91678D01*
G54D12*
X64566Y150179D02*
X67232Y152845D01*
X60121Y152845D01*
G54D12*
X65899Y159068D02*
X61455Y159068D01*
X60566Y158535D01*
X60121Y157468D01*
X60121Y156402D01*
X60566Y155335D01*
X61455Y154802D01*
X65899Y154802D01*
X66788Y155335D01*
X67232Y156402D01*
X67232Y157468D01*
X66788Y158535D01*
X65899Y159068D01*
G54D12*
X60121Y161025D02*
X67232Y161025D01*
G54D12*
X62788Y162625D02*
X60121Y164225D01*
G54D12*
X61899Y161025D02*
X64121Y164225D01*
G54D12*
X63232Y166181D02*
X63232Y170447D01*
G54D12*
X65010Y168314D02*
X61455Y168314D01*
G54D12*
X64566Y166714D02*
X61899Y169914D01*
G54D12*
X61899Y166714D02*
X64566Y169914D01*
G54D10*
X56832Y172616D02*
X36832Y172616D01*
X36832Y134616D01*
X56832Y134616D01*
X56832Y172616D01*
X166227Y131759D02*
G54D14*
D03*
G54D13*
X183956Y134096D02*
X178952Y134096D01*
X178952Y164093D01*
X183956Y164093D01*
X183956Y134096D01*
X126878Y55946D02*
G54D14*
D03*
G54D10*
X189084Y56729D02*
X167084Y56729D01*
X167084Y18729D01*
X189084Y18729D01*
X189084Y56729D01*
G54D10*
X178778Y41426D02*
X178778Y38585D01*
X173778Y38585D01*
X183778Y38585D01*
G54D10*
X173778Y36585D02*
X183778Y36585D01*
G54D10*
X178778Y36585D02*
X178778Y34141D01*
G54D12*
X105383Y136768D02*
X98272Y136768D01*
X98272Y140501D01*
G54D12*
X98272Y146190D02*
X98272Y142457D01*
X105383Y142457D01*
X105383Y146190D01*
G54D12*
X101828Y142457D02*
X101828Y146190D01*
G54D12*
X98272Y148146D02*
X105383Y148146D01*
X105383Y150813D01*
X104939Y151879D01*
X104050Y152413D01*
X99605Y152413D01*
X98716Y151879D01*
X98272Y150813D01*
X98272Y148146D01*
G54D11*
X241173Y91393D02*
X235179Y91393D01*
G54D11*
X241173Y158398D02*
X235179Y158398D01*
G54D11*
X251181Y151896D02*
X251181Y97895D01*
G54D11*
X225197Y139881D02*
X225197Y124895D01*
G54D10*
X189084Y107529D02*
X167084Y107529D01*
X167084Y69529D01*
X189084Y69529D01*
X189084Y107529D01*
G54D10*
X178778Y92226D02*
X178778Y89385D01*
X173778Y89385D01*
X183778Y89385D01*
G54D10*
X173778Y87385D02*
X183778Y87385D01*
G54D10*
X178778Y87385D02*
X178778Y84941D01*
G54D12*
X197389Y84307D02*
X192944Y84307D01*
X192055Y83774D01*
X191611Y82707D01*
X191611Y81641D01*
X192055Y80574D01*
X192944Y80041D01*
X197389Y80041D01*
X198278Y80574D01*
X198722Y81641D01*
X198722Y82707D01*
X198278Y83774D01*
X197389Y84307D01*
G54D12*
X191611Y86264D02*
X191611Y86264D01*
G54D12*
X196055Y88220D02*
X198722Y90886D01*
X191611Y90886D01*
G54D12*
X195611Y96043D02*
X191611Y96043D01*
G54D12*
X192500Y96043D02*
X191789Y95509D01*
X191611Y94443D01*
X191789Y93376D01*
X192500Y92843D01*
X195611Y92843D01*
G54D10*
X154160Y171823D02*
X132160Y171823D01*
X132160Y133823D01*
X154160Y133823D01*
X154160Y171823D01*
G54D10*
X143853Y156520D02*
X143853Y153679D01*
X138853Y153679D01*
X148853Y153679D01*
G54D10*
X138853Y151679D02*
X148853Y151679D01*
G54D10*
X143853Y151679D02*
X143853Y149235D01*
G54D12*
X128228Y149072D02*
X123784Y149072D01*
X122895Y148539D01*
X122450Y147472D01*
X122450Y146406D01*
X122895Y145339D01*
X123784Y144806D01*
X128228Y144806D01*
X129117Y145339D01*
X129562Y146406D01*
X129562Y147472D01*
X129117Y148539D01*
X128228Y149072D01*
G54D12*
X122450Y151029D02*
X122450Y151029D01*
G54D12*
X126895Y152985D02*
X129562Y155651D01*
X122450Y155651D01*
G54D12*
X126450Y160808D02*
X122450Y160808D01*
G54D12*
X123339Y160808D02*
X122628Y160274D01*
X122450Y159208D01*
X122628Y158141D01*
X123339Y157608D01*
X126450Y157608D01*
G54D15*
X137720Y69048D02*
X119940Y69048D01*
X147245Y69048D01*
G54D16*
X132855Y90157D02*
X132855Y94586D01*
X137855Y94586D01*
X127855Y94586D01*
G54D13*
X120549Y70576D02*
X146549Y70576D01*
X146549Y120576D01*
X120549Y120576D01*
X120549Y70576D01*
G54D15*
X137720Y67460D02*
X119940Y67460D01*
X147245Y67460D01*
G54D15*
X137720Y68254D02*
X119940Y68254D01*
X147245Y68254D01*
G54D15*
X137720Y66666D02*
X119940Y66666D01*
X147245Y66666D01*
G54D12*
X154156Y82104D02*
X156822Y84770D01*
X149711Y84770D01*
G54D12*
X155489Y90993D02*
X151045Y90993D01*
X150156Y90460D01*
X149711Y89393D01*
X149711Y88327D01*
X150156Y87260D01*
X151045Y86727D01*
X155489Y86727D01*
X156378Y87260D01*
X156822Y88327D01*
X156822Y89393D01*
X156378Y90460D01*
X155489Y90993D01*
G54D12*
X153711Y96150D02*
X149711Y96150D01*
G54D12*
X150600Y96150D02*
X149889Y95616D01*
X149711Y94550D01*
X149889Y93483D01*
X150600Y92950D01*
X153711Y92950D01*
G54D12*
X149711Y98106D02*
X156822Y98106D01*
X156822Y101839D01*
G54D12*
X153267Y98106D02*
X153267Y101839D01*
G54D12*
X156822Y106924D02*
X150156Y106924D01*
X149711Y107458D01*
X149889Y107991D01*
G54D12*
X153711Y105858D02*
X153711Y107991D01*
G54D12*
X149711Y109947D02*
X149711Y109947D01*
G54D17*
X140584Y61525D02*
X145917Y61525D01*
G54D17*
X143250Y59303D02*
X143250Y63748D01*
G54D16*
X132855Y100605D02*
X132855Y96177D01*
X127855Y96177D01*
X137855Y96177D01*
G54D12*
X56550Y78741D02*
X63661Y78741D01*
X63661Y81408D01*
X63216Y82474D01*
X62327Y83008D01*
X57883Y83008D01*
X56994Y82474D01*
X56550Y81408D01*
X56550Y78741D01*
G54D12*
X56550Y84964D02*
X60550Y84964D01*
G54D12*
X61883Y84964D02*
X61883Y84964D01*
G54D12*
X57616Y90120D02*
X59394Y90120D01*
X60283Y89587D01*
X60550Y88520D01*
X60283Y87454D01*
X59394Y86920D01*
X57616Y86920D01*
X56727Y87454D01*
X56550Y88520D01*
X56727Y89587D01*
X57616Y90120D01*
G54D12*
X56550Y95276D02*
X63661Y95276D01*
G54D12*
X59394Y95276D02*
X60283Y94743D01*
X60550Y93676D01*
X60283Y92610D01*
X59394Y92076D01*
X57616Y92076D01*
X56727Y92610D01*
X56550Y93676D01*
X56727Y94743D01*
X57616Y95276D01*
G54D12*
X57883Y99295D02*
X56994Y99828D01*
X56550Y100895D01*
X56550Y101962D01*
X56994Y103028D01*
X57883Y103562D01*
X58772Y103562D01*
X59661Y103028D01*
X60105Y101962D01*
X60105Y100895D01*
X60550Y99828D01*
X61438Y99295D01*
X62327Y99295D01*
X63216Y99828D01*
X63661Y100895D01*
X63661Y101962D01*
X63216Y103028D01*
X62327Y103562D01*
G54D12*
X56550Y105518D02*
X63661Y105518D01*
G54D12*
X59394Y105518D02*
X60283Y106052D01*
X60550Y107118D01*
X60283Y108185D01*
X59394Y108718D01*
X56550Y108718D01*
G54D12*
X124351Y18584D02*
X124351Y25695D01*
X121684Y21251D01*
X119017Y25695D01*
X119017Y18584D01*
G54D12*
X112795Y19917D02*
X113328Y19028D01*
X114395Y18584D01*
X115462Y18584D01*
X116528Y19028D01*
X117062Y19917D01*
X117062Y24362D01*
X116528Y25251D01*
X115462Y25695D01*
X114395Y25695D01*
X113328Y25251D01*
X112795Y24362D01*
G54D12*
X110839Y18584D02*
X110839Y25695D01*
X108172Y25695D01*
X107105Y25251D01*
X106572Y24362D01*
X106572Y23473D01*
X107105Y22584D01*
X108172Y22139D01*
X110839Y22139D01*
G54D12*
X104616Y25695D02*
X100349Y25695D01*
X100882Y24806D01*
X101949Y23473D01*
X103016Y21695D01*
X103549Y20362D01*
X103549Y18584D01*
G54D12*
X98393Y24362D02*
X97859Y25251D01*
X96793Y25695D01*
X95726Y25695D01*
X94659Y25251D01*
X94126Y24362D01*
X94126Y23473D01*
X94659Y22584D01*
X95726Y22139D01*
X94659Y21695D01*
X94126Y20806D01*
X94126Y19917D01*
X94659Y19028D01*
X95726Y18584D01*
X96793Y18584D01*
X97859Y19028D01*
X98393Y19917D01*
G54D12*
X89503Y22139D02*
X90570Y22139D01*
X91636Y22584D01*
X92170Y23473D01*
X92170Y24362D01*
X91636Y25251D01*
X90570Y25695D01*
X89503Y25695D01*
X88436Y25251D01*
X87903Y24362D01*
X87903Y23473D01*
X88436Y22584D01*
X89503Y22139D01*
X88436Y21695D01*
X87903Y20806D01*
X87903Y19917D01*
X88436Y19028D01*
X89503Y18584D01*
X90570Y18584D01*
X91636Y19028D01*
X92170Y19917D01*
X92170Y20806D01*
X91636Y21695D01*
X90570Y22139D01*
G54D12*
X85947Y24362D02*
X85413Y25251D01*
X84347Y25695D01*
X83280Y25695D01*
X82213Y25251D01*
X81680Y24362D01*
X81680Y23473D01*
X82213Y22584D01*
X83280Y22139D01*
X82213Y21695D01*
X81680Y20806D01*
X81680Y19917D01*
X82213Y19028D01*
X83280Y18584D01*
X84347Y18584D01*
X85413Y19028D01*
X85947Y19917D01*
G54D12*
X79724Y23028D02*
X77057Y25695D01*
X77057Y18584D01*
G54D12*
X72967Y18584D02*
X72967Y25695D01*
G54D12*
X75101Y25695D02*
X70834Y25695D01*
G54D12*
X208327Y167036D02*
X208327Y174147D01*
X205661Y169703D01*
X202994Y174147D01*
X202994Y167036D01*
G54D12*
X196772Y168369D02*
X197305Y167480D01*
X198372Y167036D01*
X199438Y167036D01*
X200505Y167480D01*
X201038Y168369D01*
X201038Y172814D01*
X200505Y173703D01*
X199438Y174147D01*
X198372Y174147D01*
X197305Y173703D01*
X196772Y172814D01*
G54D12*
X194815Y167036D02*
X194815Y174147D01*
X192149Y174147D01*
X191082Y173703D01*
X190549Y172814D01*
X190549Y171925D01*
X191082Y171036D01*
X192149Y170592D01*
X194815Y170592D01*
G54D12*
X188592Y171480D02*
X185926Y174147D01*
X185926Y167036D01*
G54D12*
X183969Y174147D02*
X179703Y174147D01*
X180236Y173258D01*
X181303Y171925D01*
X182369Y170147D01*
X182903Y168814D01*
X182903Y167036D01*
G54D12*
X173480Y172814D02*
X173480Y168369D01*
X174013Y167480D01*
X175080Y167036D01*
X176146Y167036D01*
X177213Y167480D01*
X177746Y168369D01*
X177746Y172814D01*
X177213Y173703D01*
X176146Y174147D01*
X175080Y174147D01*
X174013Y173703D01*
X173480Y172814D01*
G54D12*
X171523Y172814D02*
X170990Y173703D01*
X169923Y174147D01*
X168857Y174147D01*
X167790Y173703D01*
X167257Y172814D01*
X167257Y171925D01*
X167790Y171036D01*
X168857Y170592D01*
X167790Y170147D01*
X167257Y169258D01*
X167257Y168369D01*
X167790Y167480D01*
X168857Y167036D01*
X169923Y167036D01*
X170990Y167480D01*
X171523Y168369D01*
G54D12*
X163167Y167036D02*
X163167Y174147D01*
G54D12*
X165300Y174147D02*
X161034Y174147D01*
G54D12*
X197388Y31920D02*
X192944Y31920D01*
X192055Y31386D01*
X191611Y30320D01*
X191611Y29253D01*
X192055Y28186D01*
X192944Y27653D01*
X197388Y27653D01*
X198277Y28186D01*
X198722Y29253D01*
X198722Y30320D01*
X198277Y31386D01*
X197388Y31920D01*
G54D12*
X191611Y33876D02*
X191611Y33876D01*
G54D12*
X196055Y35832D02*
X198722Y38498D01*
X191611Y38498D01*
G54D12*
X195611Y43655D02*
X191611Y43655D01*
G54D12*
X192500Y43655D02*
X191788Y43122D01*
X191611Y42055D01*
X191788Y40988D01*
X192500Y40455D01*
X195611Y40455D01*
G54D15*
X220947Y16144D02*
X213836Y16144D01*
X213836Y19877D01*
G54D15*
X213836Y22366D02*
X217836Y22366D01*
G54D15*
X219169Y22366D02*
X219169Y22366D01*
G54D15*
X213836Y24855D02*
X220947Y24855D01*
X220947Y27522D01*
X220503Y28588D01*
X219614Y29122D01*
X218725Y29122D01*
X217836Y28588D01*
X217391Y27522D01*
X217391Y24855D01*
G54D15*
X214903Y34811D02*
X216680Y34811D01*
X217569Y34278D01*
X217836Y33211D01*
X217569Y32144D01*
X216680Y31611D01*
X214903Y31611D01*
X214014Y32144D01*
X213836Y33211D01*
X214014Y34278D01*
X214903Y34811D01*
G54D15*
X213836Y37300D02*
X220947Y41567D01*
G54D15*
X213836Y44056D02*
X217836Y44056D01*
G54D15*
X219169Y44056D02*
X219169Y44056D01*
G54D15*
X214903Y49745D02*
X216680Y49745D01*
X217569Y49212D01*
X217836Y48145D01*
X217569Y47078D01*
X216680Y46545D01*
X214903Y46545D01*
X214014Y47078D01*
X213836Y48145D01*
X214014Y49212D01*
X214903Y49745D01*
G54D15*
X213836Y52234D02*
X217836Y52234D01*
G54D15*
X216947Y52234D02*
X217569Y52767D01*
X217836Y53834D01*
X217569Y54900D01*
X216947Y55434D01*
X213836Y55434D01*
G54D10*
X30334Y111101D02*
X8334Y111101D01*
X8334Y73101D01*
X30334Y73101D01*
X30334Y111101D01*
G54D10*
X20028Y95798D02*
X20028Y92958D01*
X15028Y92958D01*
X25028Y92958D01*
G54D10*
X15028Y90958D02*
X25028Y90958D01*
G54D10*
X20028Y90958D02*
X20028Y88514D01*
G54D12*
X23377Y120104D02*
X23377Y115660D01*
X23911Y114771D01*
X24977Y114327D01*
X26044Y114327D01*
X27111Y114771D01*
X27644Y115660D01*
X27644Y120104D01*
X27111Y120993D01*
X26044Y121438D01*
X24977Y121438D01*
X23911Y120993D01*
X23377Y120104D01*
G54D12*
X21421Y114327D02*
X21421Y114327D01*
G54D12*
X19465Y118771D02*
X16798Y121438D01*
X16798Y114327D01*
G54D12*
X11642Y118327D02*
X11642Y114327D01*
G54D12*
X11642Y115216D02*
X12175Y114504D01*
X13242Y114327D01*
X14309Y114504D01*
X14842Y115216D01*
X14842Y118327D01*
G54D17*
X226706Y54382D02*
X232039Y54382D01*
G54D17*
X229372Y52159D02*
X229372Y56604D01*
G54D10*
X51940Y9556D02*
X39637Y9556D01*
X39637Y44115D01*
X52337Y44115D01*
X52337Y9556D01*
G36*
X39563Y30509D02*
X39663Y30509D01*
X45963Y24209D01*
X46063Y24209D01*
X52363Y30509D01*
X39563Y30509D01*
G37*
G54D10*
X39563Y30509D02*
X39663Y30509D01*
X45963Y24209D01*
X46063Y24209D01*
X52363Y30509D01*
X39563Y30509D01*
G54D12*
X55756Y10876D02*
X62867Y10876D01*
X62867Y13542D01*
X62422Y14609D01*
X61534Y15142D01*
X57089Y15142D01*
X56200Y14609D01*
X55756Y13542D01*
X55756Y10876D01*
G54D12*
X55756Y17099D02*
X59756Y17099D01*
G54D12*
X61089Y17099D02*
X61089Y17099D01*
G54D12*
X56822Y22255D02*
X58600Y22255D01*
X59489Y21721D01*
X59756Y20655D01*
X59489Y19588D01*
X58600Y19055D01*
X56822Y19055D01*
X55934Y19588D01*
X55756Y20655D01*
X55934Y21721D01*
X56822Y22255D01*
G54D12*
X55756Y27411D02*
X62867Y27411D01*
G54D12*
X58600Y27411D02*
X59489Y26877D01*
X59756Y25811D01*
X59489Y24744D01*
X58600Y24211D01*
X56822Y24211D01*
X55934Y24744D01*
X55756Y25811D01*
X55934Y26877D01*
X56822Y27411D01*
G54D12*
X57089Y31430D02*
X56200Y31963D01*
X55756Y33030D01*
X55756Y34096D01*
X56200Y35163D01*
X57089Y35696D01*
X57978Y35696D01*
X58867Y35163D01*
X59311Y34096D01*
X59311Y33030D01*
X59756Y31963D01*
X60645Y31430D01*
X61534Y31430D01*
X62422Y31963D01*
X62867Y33030D01*
X62867Y34096D01*
X62422Y35163D01*
X61534Y35696D01*
G54D12*
X55756Y37653D02*
X62867Y37653D01*
G54D12*
X58600Y37653D02*
X59489Y38186D01*
X59756Y39253D01*
X59489Y40319D01*
X58600Y40853D01*
X55756Y40853D01*
M02*
